M48
METRIC,LZ,000.000
;FILE_FORMAT=3:3
;TYPE=PLATED
;Layer: PTH_Through
;EasyEDA v6.5.22, 2023-11-14 22:50:32
;e9b09aeb9267423f9454c27dff36c41a,e380eaf7f1bc463bad4fc33596f4f57f,10
;Gerber Generator version 0.2
;Holesize 1 = 0.701 mm
T01C0.701
;Holesize 2 = 0.889 mm
T02C0.889
;Holesize 3 = 0.901 mm
T03C0.901
;Holesize 4 = 1.000 mm
T04C1.000
;Holesize 5 = 1.101 mm
T05C1.101
%
G05
G90
T01
X026162Y039370
X027432Y039370
X028702Y039370
X034036Y039370
X035306Y039370
X036576Y039370
T02
X011938Y025908
X011938Y023368
X039370Y016256
X036830Y016256
X011938Y049784
X011938Y047244
X011938Y044704
X011938Y042164
X011938Y039624
X011938Y037084
X060579Y032004
X060579Y034544
X060579Y037084
T03
X019304Y060071
X021844Y075311
X026925Y075311
X032005Y075311
X037085Y075311
X042165Y075311
X047245Y075311
X052325Y075311
X054864Y060071
X049783Y060071
X044703Y060071
X039623Y060071
X034543Y060071
X029463Y060071
X024384Y060071
X021844Y060071
X026924Y060071
X032004Y060071
X037084Y060071
X042164Y060071
X047244Y060071
X052324Y060071
X054864Y075311
X049784Y075311
X044704Y075311
X039624Y075311
X034544Y075311
X029464Y075311
X024384Y075311
X019304Y075311
T04
X029623Y032766
X020923Y032766
X042323Y032766
X033623Y032766
X022606Y028565
X022606Y025365
X022606Y023165
X022606Y020965
X027686Y020965
X027686Y023165
X027686Y025365
X027686Y028565
X035433Y028565
X035433Y025365
X035433Y023165
X035433Y020965
X040513Y020965
X040513Y023165
X040513Y025365
X040513Y028565
T05
X050368Y045375
X050368Y049875
X043866Y045375
X043866Y049875
M30
