G04 Layer: TopSolderMaskLayer*
G04 EasyEDA v6.5.22, 2023-11-14 22:50:32*
G04 e9b09aeb9267423f9454c27dff36c41a,e380eaf7f1bc463bad4fc33596f4f57f,10*
G04 Gerber Generator version 0.2*
G04 Scale: 100 percent, Rotated: No, Reflected: No *
G04 Dimensions in millimeters *
G04 leading zeros omitted , absolute positions ,4 integer and 5 decimal *
%FSLAX45Y45*%
%MOMM*%

%AMMACRO1*1,1,$1,$2,$3*1,1,$1,$4,$5*1,1,$1,0-$2,0-$3*1,1,$1,0-$4,0-$5*20,1,$1,$2,$3,$4,$5,0*20,1,$1,$4,$5,0-$2,0-$3,0*20,1,$1,0-$2,0-$3,0-$4,0-$5,0*20,1,$1,0-$4,0-$5,$2,$3,0*4,1,4,$2,$3,$4,$5,0-$2,0-$3,0-$4,0-$5,$2,$3,0*%
%ADD10MACRO1,0.1016X0.705X0.675X0.705X-0.675*%
%ADD11MACRO1,0.1016X-0.705X0.675X-0.705X-0.675*%
%ADD12C,1.9016*%
%ADD13MACRO1,0.1016X-0.705X-0.675X-0.705X0.675*%
%ADD14MACRO1,0.1016X0.705X-0.675X0.705X0.675*%
%ADD15MACRO1,0.1016X0.7874X-0.7874X-0.7874X-0.7874*%
%ADD16C,1.6764*%
%ADD17R,1.6764X1.6764*%
%ADD18MACRO1,0.1016X0.7874X0.7874X0.7874X-0.7874*%
%ADD19O,1.0015981999999999X1.7015968*%
%ADD20MACRO1,0.1016X-0.45X0.8X0.45X0.8*%
%ADD21MACRO1,0.1016X0.5663X0.6885X0.5663X-0.6885*%
%ADD22MACRO1,0.1016X-0.5663X0.6885X-0.5663X-0.6885*%
%ADD23MACRO1,0.1016X-0.6885X0.5663X0.6885X0.5663*%
%ADD24MACRO1,0.1016X-0.6885X-0.5663X0.6885X-0.5663*%
%ADD25MACRO1,0.1016X0.6885X-0.5663X-0.6885X-0.5663*%
%ADD26MACRO1,0.1016X0.6885X0.5663X-0.6885X0.5663*%
%ADD27MACRO1,0.1016X0.8X-0.8X-0.8X-0.8*%
%ADD28C,1.7016*%
%ADD29O,1.006602X0.38160960000000005*%
%ADD30O,0.0107X0.38160960000000005*%

%LPD*%
G36*
X5325364Y3061716D02*
G01*
X5317642Y3061411D01*
X5314035Y3060903D01*
X5310682Y3059988D01*
X5307584Y3058566D01*
X5304739Y3056534D01*
X5302300Y3053740D01*
X5300167Y3050184D01*
X5298490Y3045663D01*
X5297220Y3040075D01*
X5296408Y3033369D01*
X5296154Y3025394D01*
X5296283Y3016504D01*
X5329936Y3016504D01*
X5330139Y3021076D01*
X5331002Y3024428D01*
X5332831Y3026460D01*
X5336032Y3027172D01*
X5338876Y3026968D01*
X5342483Y3026359D01*
X5351678Y3023870D01*
X5357114Y3022092D01*
X5369356Y3017316D01*
X5383123Y3011068D01*
X5397855Y3003499D01*
X5412994Y2994609D01*
X5420614Y2989681D01*
X5428183Y2984449D01*
X5435600Y2978912D01*
X5443016Y2984449D01*
X5458155Y2994609D01*
X5473344Y3003499D01*
X5488025Y3011068D01*
X5501690Y3017316D01*
X5513832Y3022092D01*
X5524042Y3025292D01*
X5528208Y3026359D01*
X5531662Y3026968D01*
X5534406Y3027172D01*
X5538063Y3026460D01*
X5540095Y3024428D01*
X5541060Y3021076D01*
X5541264Y3016504D01*
X5541060Y3006344D01*
X5540400Y2995777D01*
X5539333Y2984957D01*
X5537809Y2973882D01*
X5535930Y2962503D01*
X5533644Y2950972D01*
X5530951Y2939237D01*
X5527903Y2927400D01*
X5524500Y2915412D01*
X5520690Y2903372D01*
X5516575Y2891282D01*
X5512155Y2879140D01*
X5507380Y2867050D01*
X5502300Y2855061D01*
X5496915Y2843123D01*
X5491226Y2831287D01*
X5485231Y2819654D01*
X5478983Y2808173D01*
X5472480Y2796946D01*
X5465724Y2785973D01*
X5458714Y2775254D01*
X5451500Y2764891D01*
X5444032Y2754884D01*
X5436362Y2745232D01*
X5434838Y2745232D01*
X5426913Y2754884D01*
X5419293Y2764891D01*
X5411876Y2775254D01*
X5404764Y2785973D01*
X5397906Y2796946D01*
X5391353Y2808173D01*
X5385054Y2819654D01*
X5379059Y2831287D01*
X5373420Y2843123D01*
X5368036Y2855061D01*
X5363006Y2867050D01*
X5358282Y2879140D01*
X5353913Y2891282D01*
X5349849Y2903372D01*
X5346192Y2915412D01*
X5342839Y2927400D01*
X5339892Y2939237D01*
X5337302Y2950972D01*
X5335066Y2962503D01*
X5333238Y2973882D01*
X5331815Y2984957D01*
X5330748Y2995777D01*
X5330139Y3006344D01*
X5329936Y3016504D01*
X5296283Y3016504D01*
X5297170Y2999841D01*
X5299456Y2978353D01*
X5303062Y2956052D01*
X5305298Y2944672D01*
X5307888Y2933192D01*
X5310784Y2921609D01*
X5313984Y2909925D01*
X5317490Y2898190D01*
X5321300Y2886405D01*
X5325414Y2874619D01*
X5329834Y2862834D01*
X5334558Y2851048D01*
X5339537Y2839364D01*
X5350459Y2816148D01*
X5356301Y2804718D01*
X5362498Y2793441D01*
X5368950Y2782316D01*
X5375656Y2771343D01*
X5382666Y2760624D01*
X5389930Y2750108D01*
X5397500Y2739796D01*
X5405323Y2729788D01*
X5413451Y2720086D01*
X5421782Y2710688D01*
X5434838Y2697226D01*
X5436362Y2697226D01*
X5445099Y2706116D01*
X5453634Y2715361D01*
X5461863Y2724912D01*
X5469788Y2734767D01*
X5477510Y2744927D01*
X5484926Y2755341D01*
X5492089Y2765958D01*
X5498947Y2776829D01*
X5505500Y2787853D01*
X5511850Y2799080D01*
X5517845Y2810408D01*
X5523585Y2821940D01*
X5529021Y2833522D01*
X5534202Y2845206D01*
X5539028Y2856941D01*
X5543600Y2868726D01*
X5547868Y2880512D01*
X5551830Y2892298D01*
X5555488Y2904032D01*
X5558840Y2915767D01*
X5561888Y2927400D01*
X5564632Y2938932D01*
X5567070Y2950362D01*
X5569153Y2961690D01*
X5570931Y2972816D01*
X5572404Y2983788D01*
X5573572Y2994558D01*
X5574385Y3005074D01*
X5574893Y3015386D01*
X5575046Y3025394D01*
X5574385Y3036874D01*
X5572556Y3045663D01*
X5569813Y3052064D01*
X5566359Y3056534D01*
X5562447Y3059328D01*
X5558332Y3060903D01*
X5554218Y3061563D01*
X5550408Y3061716D01*
X5546598Y3061563D01*
X5537454Y3060344D01*
X5526633Y3058058D01*
X5514492Y3054807D01*
X5501538Y3050692D01*
X5488228Y3045917D01*
X5474970Y3040532D01*
X5462270Y3034690D01*
X5450484Y3028594D01*
X5445099Y3025444D01*
X5440121Y3022244D01*
X5435600Y3019044D01*
X5431129Y3022244D01*
X5420918Y3028594D01*
X5409488Y3034690D01*
X5397195Y3040532D01*
X5384495Y3045917D01*
X5371744Y3050692D01*
X5359450Y3054807D01*
X5347919Y3058058D01*
X5337606Y3060344D01*
X5328970Y3061563D01*
G37*
G36*
X5770321Y2902102D02*
G01*
X5764631Y2901645D01*
X5757976Y2900324D01*
X5750306Y2898140D01*
X5740806Y2894888D01*
X5731154Y2891282D01*
X5721350Y2887268D01*
X5701436Y2878124D01*
X5681268Y2867456D01*
X5671108Y2861665D01*
X5660948Y2855468D01*
X5650788Y2848965D01*
X5640679Y2842158D01*
X5630621Y2835046D01*
X5620613Y2827629D01*
X5610707Y2819958D01*
X5600903Y2811983D01*
X5591200Y2803702D01*
X5581700Y2795219D01*
X5572353Y2786430D01*
X5554218Y2768244D01*
X5537047Y2749092D01*
X5528868Y2739237D01*
X5520944Y2729179D01*
X5513374Y2718917D01*
X5506110Y2708503D01*
X5499201Y2697886D01*
X5488855Y2680462D01*
X5527040Y2680462D01*
X5533745Y2690926D01*
X5540908Y2701290D01*
X5548426Y2711500D01*
X5556402Y2721559D01*
X5564682Y2731465D01*
X5573318Y2741168D01*
X5582208Y2750616D01*
X5591403Y2759913D01*
X5600852Y2768904D01*
X5610504Y2777642D01*
X5620359Y2786126D01*
X5630316Y2794304D01*
X5640425Y2802178D01*
X5650636Y2809748D01*
X5660948Y2816961D01*
X5671261Y2823768D01*
X5681624Y2830271D01*
X5691936Y2836316D01*
X5702249Y2842006D01*
X5712460Y2847238D01*
X5722569Y2852013D01*
X5732576Y2856382D01*
X5742432Y2860243D01*
X5752084Y2863596D01*
X5756249Y2864561D01*
X5759500Y2864764D01*
X5761939Y2863697D01*
X5763514Y2860802D01*
X5764326Y2858058D01*
X5765444Y2850134D01*
X5765901Y2839415D01*
X5765546Y2826359D01*
X5764225Y2811475D01*
X5761837Y2795168D01*
X5760212Y2786634D01*
X5758230Y2777896D01*
X5755944Y2769108D01*
X5753303Y2760218D01*
X5750306Y2751328D01*
X5757824Y2746044D01*
X5765088Y2740558D01*
X5772099Y2734919D01*
X5785053Y2723388D01*
X5796534Y2711907D01*
X5806338Y2700883D01*
X5814314Y2690876D01*
X5817565Y2686405D01*
X5822442Y2678684D01*
X5824016Y2675585D01*
X5824982Y2673096D01*
X5825490Y2669235D01*
X5824372Y2666542D01*
X5821578Y2664409D01*
X5817108Y2662428D01*
X5807405Y2659481D01*
X5797245Y2656840D01*
X5786729Y2654503D01*
X5775756Y2652522D01*
X5764479Y2650794D01*
X5752846Y2649423D01*
X5740958Y2648356D01*
X5728868Y2647594D01*
X5716473Y2647188D01*
X5703976Y2647035D01*
X5684875Y2647442D01*
X5659170Y2649118D01*
X5646216Y2650388D01*
X5633262Y2652014D01*
X5620359Y2653944D01*
X5607558Y2656179D01*
X5594807Y2658719D01*
X5582208Y2661615D01*
X5569762Y2664815D01*
X5557520Y2668320D01*
X5545531Y2672130D01*
X5528056Y2678430D01*
X5527040Y2680462D01*
X5488855Y2680462D01*
X5480812Y2665222D01*
X5481828Y2663444D01*
X5493004Y2657856D01*
X5504383Y2652623D01*
X5516016Y2647746D01*
X5527802Y2643225D01*
X5539841Y2639009D01*
X5551982Y2635199D01*
X5564276Y2631643D01*
X5576722Y2628493D01*
X5589219Y2625598D01*
X5601817Y2623058D01*
X5614466Y2620822D01*
X5627116Y2618943D01*
X5639816Y2617317D01*
X5652465Y2615996D01*
X5665114Y2614980D01*
X5677712Y2614269D01*
X5702655Y2613710D01*
X5714949Y2613812D01*
X5727090Y2614218D01*
X5750915Y2615844D01*
X5762548Y2617063D01*
X5773928Y2618536D01*
X5795975Y2622194D01*
X5816854Y2626868D01*
X5826810Y2629560D01*
X5836412Y2632456D01*
X5847181Y2636570D01*
X5855055Y2640990D01*
X5860389Y2645664D01*
X5863590Y2650388D01*
X5865063Y2655112D01*
X5865266Y2659634D01*
X5864555Y2663901D01*
X5861659Y2672283D01*
X5859576Y2677058D01*
X5854395Y2687116D01*
X5847994Y2697683D01*
X5840628Y2708452D01*
X5832449Y2719222D01*
X5823712Y2729738D01*
X5814669Y2739745D01*
X5805474Y2748940D01*
X5796432Y2757119D01*
X5787644Y2764028D01*
X5790793Y2774696D01*
X5793384Y2786837D01*
X5795416Y2799943D01*
X5796838Y2813558D01*
X5797753Y2827223D01*
X5798058Y2840583D01*
X5797854Y2853080D01*
X5797042Y2864307D01*
X5795670Y2873806D01*
X5793740Y2881122D01*
X5791047Y2888437D01*
X5789472Y2891688D01*
X5787542Y2894685D01*
X5785256Y2897225D01*
X5782513Y2899359D01*
X5779160Y2900883D01*
X5775096Y2901848D01*
G37*
G36*
X5100878Y2902102D02*
G01*
X5096103Y2901848D01*
X5092039Y2900883D01*
X5088686Y2899359D01*
X5085943Y2897225D01*
X5083657Y2894685D01*
X5081727Y2891688D01*
X5080152Y2888437D01*
X5077460Y2881122D01*
X5075529Y2873806D01*
X5074158Y2864307D01*
X5073345Y2853080D01*
X5073142Y2840583D01*
X5073446Y2827223D01*
X5074361Y2813558D01*
X5075783Y2799943D01*
X5077815Y2786837D01*
X5080406Y2774696D01*
X5083556Y2764028D01*
X5079187Y2760726D01*
X5070094Y2752953D01*
X5060746Y2743962D01*
X5051298Y2733954D01*
X5042103Y2723337D01*
X5033467Y2712415D01*
X5025542Y2701442D01*
X5018684Y2690825D01*
X5013147Y2680868D01*
X5009184Y2671826D01*
X5008342Y2669235D01*
X5045710Y2669235D01*
X5046218Y2673096D01*
X5047183Y2675585D01*
X5048758Y2678684D01*
X5053634Y2686405D01*
X5060645Y2695752D01*
X5069535Y2706319D01*
X5074666Y2711907D01*
X5086146Y2723388D01*
X5099100Y2734919D01*
X5106111Y2740558D01*
X5113375Y2746044D01*
X5120894Y2751328D01*
X5117896Y2760218D01*
X5115306Y2769108D01*
X5113020Y2777998D01*
X5111140Y2786786D01*
X5109565Y2795371D01*
X5107279Y2811830D01*
X5106111Y2826918D01*
X5105857Y2840126D01*
X5106416Y2850896D01*
X5107635Y2858820D01*
X5108448Y2861564D01*
X5110124Y2864510D01*
X5112562Y2865628D01*
X5115763Y2865424D01*
X5119878Y2864358D01*
X5129580Y2861005D01*
X5139436Y2857144D01*
X5149392Y2852775D01*
X5159552Y2847949D01*
X5169712Y2842666D01*
X5179974Y2836976D01*
X5190286Y2830880D01*
X5200599Y2824378D01*
X5210911Y2817469D01*
X5221122Y2810205D01*
X5231282Y2802636D01*
X5241340Y2794711D01*
X5251297Y2786481D01*
X5265877Y2773578D01*
X5275376Y2764637D01*
X5284622Y2755442D01*
X5293664Y2746044D01*
X5302351Y2736443D01*
X5310784Y2726639D01*
X5318861Y2716631D01*
X5326583Y2706471D01*
X5333949Y2696159D01*
X5344160Y2680462D01*
X5343144Y2678430D01*
X5331561Y2674162D01*
X5319674Y2670149D01*
X5307584Y2666492D01*
X5295239Y2663190D01*
X5282742Y2660142D01*
X5270042Y2657449D01*
X5257241Y2655011D01*
X5244388Y2652928D01*
X5231485Y2651201D01*
X5218531Y2649728D01*
X5205577Y2648559D01*
X5192725Y2647746D01*
X5179923Y2647238D01*
X5160924Y2647086D01*
X5148478Y2647340D01*
X5136235Y2647950D01*
X5124246Y2648864D01*
X5112512Y2650083D01*
X5101031Y2651607D01*
X5089906Y2653487D01*
X5079187Y2655620D01*
X5068824Y2658110D01*
X5054092Y2662428D01*
X5049621Y2664409D01*
X5046827Y2666542D01*
X5045710Y2669235D01*
X5008342Y2669235D01*
X5006644Y2663901D01*
X5005933Y2659634D01*
X5006136Y2655112D01*
X5007610Y2650388D01*
X5010810Y2645664D01*
X5016144Y2640990D01*
X5024018Y2636570D01*
X5034788Y2632456D01*
X5044389Y2629560D01*
X5054346Y2626868D01*
X5075224Y2622194D01*
X5097272Y2618536D01*
X5108651Y2617063D01*
X5120284Y2615844D01*
X5144109Y2614218D01*
X5156250Y2613812D01*
X5180990Y2613863D01*
X5193487Y2614269D01*
X5206085Y2614980D01*
X5218734Y2615996D01*
X5231384Y2617317D01*
X5244084Y2618943D01*
X5256733Y2620822D01*
X5269382Y2623058D01*
X5281980Y2625598D01*
X5294477Y2628493D01*
X5306923Y2631643D01*
X5319217Y2635199D01*
X5331358Y2639009D01*
X5343398Y2643225D01*
X5355183Y2647746D01*
X5366816Y2652623D01*
X5378196Y2657856D01*
X5389372Y2663444D01*
X5390388Y2665222D01*
X5384647Y2676245D01*
X5378500Y2687167D01*
X5371998Y2697886D01*
X5365089Y2708503D01*
X5357825Y2718917D01*
X5350256Y2729179D01*
X5342331Y2739237D01*
X5334152Y2749092D01*
X5316982Y2768244D01*
X5298846Y2786430D01*
X5289499Y2795219D01*
X5279999Y2803702D01*
X5270296Y2811983D01*
X5260492Y2819958D01*
X5250586Y2827629D01*
X5240578Y2835046D01*
X5230520Y2842158D01*
X5220411Y2848965D01*
X5210251Y2855468D01*
X5200091Y2861665D01*
X5179822Y2872943D01*
X5169763Y2878124D01*
X5149850Y2887268D01*
X5140045Y2891282D01*
X5130393Y2894888D01*
X5120894Y2898140D01*
X5113223Y2900324D01*
X5106568Y2901645D01*
G37*
G36*
X5464810Y2611120D02*
G01*
X5463286Y2610104D01*
X5461457Y2597759D01*
X5459984Y2585313D01*
X5458968Y2572715D01*
X5458307Y2560066D01*
X5458053Y2545994D01*
X5490768Y2545994D01*
X5490921Y2558592D01*
X5491480Y2570988D01*
X5492496Y2572004D01*
X5504637Y2568854D01*
X5516829Y2565247D01*
X5528970Y2561183D01*
X5541111Y2556713D01*
X5553151Y2551887D01*
X5565140Y2546654D01*
X5577027Y2541066D01*
X5588812Y2535174D01*
X5600395Y2528976D01*
X5611774Y2522524D01*
X5623001Y2515768D01*
X5633923Y2508808D01*
X5644642Y2501595D01*
X5655056Y2494229D01*
X5665165Y2486660D01*
X5674918Y2478938D01*
X5684316Y2471115D01*
X5693359Y2463190D01*
X5701944Y2455164D01*
X5710123Y2447036D01*
X5717794Y2438908D01*
X5725007Y2430780D01*
X5731713Y2422652D01*
X5737860Y2414524D01*
X5740247Y2410866D01*
X5741720Y2407767D01*
X5741466Y2405176D01*
X5736590Y2401519D01*
X5733389Y2399792D01*
X5729478Y2398014D01*
X5719368Y2394356D01*
X5706719Y2390698D01*
X5691936Y2387346D01*
X5675579Y2384552D01*
X5657951Y2382520D01*
X5648807Y2381859D01*
X5639511Y2381554D01*
X5630164Y2381504D01*
X5627522Y2372766D01*
X5624525Y2364181D01*
X5621274Y2355799D01*
X5617768Y2347671D01*
X5610352Y2332380D01*
X5602681Y2318562D01*
X5595162Y2306675D01*
X5588254Y2296972D01*
X5582310Y2289911D01*
X5579872Y2287422D01*
X5577840Y2285746D01*
X5574233Y2284069D01*
X5571134Y2284476D01*
X5567984Y2286609D01*
X5564378Y2290064D01*
X5558688Y2298344D01*
X5553151Y2307132D01*
X5547817Y2316480D01*
X5542584Y2326233D01*
X5537555Y2336495D01*
X5532729Y2347112D01*
X5528106Y2358085D01*
X5523687Y2369464D01*
X5519521Y2381097D01*
X5515559Y2393035D01*
X5511850Y2405176D01*
X5508396Y2417572D01*
X5505246Y2430119D01*
X5502351Y2442819D01*
X5498541Y2462123D01*
X5496407Y2475077D01*
X5494629Y2488031D01*
X5493156Y2500985D01*
X5491988Y2513939D01*
X5491226Y2526842D01*
X5490768Y2545994D01*
X5458053Y2545994D01*
X5458155Y2534513D01*
X5458612Y2521661D01*
X5459425Y2508859D01*
X5460542Y2496007D01*
X5462016Y2483205D01*
X5463794Y2470454D01*
X5465876Y2457754D01*
X5469534Y2438857D01*
X5472328Y2426411D01*
X5475376Y2414117D01*
X5482285Y2389936D01*
X5486044Y2378151D01*
X5490057Y2366518D01*
X5498744Y2344064D01*
X5503367Y2333193D01*
X5508142Y2322677D01*
X5513120Y2312416D01*
X5518251Y2302459D01*
X5523534Y2292908D01*
X5528970Y2283663D01*
X5534507Y2274874D01*
X5543042Y2262378D01*
X5550408Y2253640D01*
X5557113Y2247747D01*
X5563260Y2244191D01*
X5568746Y2242718D01*
X5573725Y2242718D01*
X5578195Y2243937D01*
X5582158Y2245868D01*
X5585714Y2248154D01*
X5591657Y2253386D01*
X5598566Y2260701D01*
X5606135Y2269794D01*
X5614111Y2280208D01*
X5622137Y2291638D01*
X5630011Y2303627D01*
X5637326Y2315768D01*
X5643880Y2327808D01*
X5649264Y2339238D01*
X5653278Y2349754D01*
X5664454Y2350008D01*
X5676747Y2351278D01*
X5689854Y2353411D01*
X5703265Y2356307D01*
X5716574Y2359710D01*
X5729427Y2363571D01*
X5741314Y2367635D01*
X5751880Y2371852D01*
X5760669Y2376017D01*
X5767324Y2379980D01*
X5773267Y2384856D01*
X5775858Y2387396D01*
X5778093Y2390140D01*
X5779820Y2393137D01*
X5780989Y2396439D01*
X5781446Y2400147D01*
X5781090Y2404313D01*
X5779922Y2408986D01*
X5777687Y2414270D01*
X5774385Y2420264D01*
X5766917Y2430983D01*
X5760720Y2439009D01*
X5754116Y2447036D01*
X5747054Y2455113D01*
X5739638Y2463139D01*
X5723636Y2479090D01*
X5715152Y2486964D01*
X5697118Y2502458D01*
X5677865Y2517495D01*
X5667857Y2524810D01*
X5657596Y2531922D01*
X5647080Y2538882D01*
X5625388Y2552192D01*
X5608574Y2561539D01*
X5597194Y2567482D01*
X5585612Y2573121D01*
X5573928Y2578506D01*
X5562092Y2583586D01*
X5550154Y2588310D01*
X5538114Y2592730D01*
X5526024Y2596794D01*
X5513832Y2600452D01*
X5501589Y2603754D01*
X5489346Y2606649D01*
X5477103Y2609088D01*
G37*
G36*
X5406390Y2611120D02*
G01*
X5394096Y2609088D01*
X5381853Y2606649D01*
X5369610Y2603754D01*
X5357368Y2600452D01*
X5345176Y2596794D01*
X5333085Y2592730D01*
X5321046Y2588310D01*
X5309108Y2583586D01*
X5297271Y2578506D01*
X5285587Y2573121D01*
X5274005Y2567482D01*
X5262626Y2561539D01*
X5245811Y2552192D01*
X5224119Y2538882D01*
X5213604Y2531922D01*
X5203342Y2524810D01*
X5193334Y2517495D01*
X5174081Y2502458D01*
X5156047Y2486964D01*
X5147564Y2479090D01*
X5131562Y2463139D01*
X5124145Y2455113D01*
X5117084Y2447036D01*
X5110480Y2439009D01*
X5101336Y2426970D01*
X5095036Y2417165D01*
X5091277Y2408986D01*
X5091002Y2407767D01*
X5129479Y2407767D01*
X5130952Y2410866D01*
X5133340Y2414524D01*
X5139486Y2422652D01*
X5146192Y2430780D01*
X5153406Y2438908D01*
X5161076Y2447036D01*
X5169255Y2455164D01*
X5177840Y2463190D01*
X5186883Y2471115D01*
X5196281Y2478938D01*
X5206034Y2486660D01*
X5216144Y2494229D01*
X5226558Y2501595D01*
X5237276Y2508808D01*
X5248198Y2515768D01*
X5259425Y2522524D01*
X5270804Y2528976D01*
X5282387Y2535174D01*
X5294172Y2541066D01*
X5306060Y2546654D01*
X5318048Y2551887D01*
X5330088Y2556713D01*
X5342229Y2561183D01*
X5354370Y2565247D01*
X5366562Y2568854D01*
X5378704Y2572004D01*
X5379720Y2570988D01*
X5380278Y2558592D01*
X5380431Y2545994D01*
X5380228Y2533243D01*
X5379618Y2520391D01*
X5378653Y2507488D01*
X5377383Y2494534D01*
X5375706Y2481529D01*
X5373725Y2468575D01*
X5370220Y2449220D01*
X5364429Y2423820D01*
X5361127Y2411374D01*
X5357520Y2399080D01*
X5353710Y2387041D01*
X5349646Y2375255D01*
X5345328Y2363724D01*
X5340807Y2352548D01*
X5336082Y2341727D01*
X5331155Y2331313D01*
X5326024Y2321306D01*
X5320741Y2311755D01*
X5315305Y2302662D01*
X5306822Y2290064D01*
X5303215Y2286609D01*
X5300065Y2284476D01*
X5296966Y2284069D01*
X5293360Y2285746D01*
X5291328Y2287422D01*
X5286095Y2293112D01*
X5282946Y2296972D01*
X5276037Y2306675D01*
X5268518Y2318562D01*
X5260848Y2332380D01*
X5253431Y2347671D01*
X5249926Y2355799D01*
X5246674Y2364181D01*
X5243677Y2372766D01*
X5241036Y2381504D01*
X5231739Y2381554D01*
X5222494Y2381859D01*
X5213350Y2382520D01*
X5195773Y2384552D01*
X5179364Y2387346D01*
X5164582Y2390698D01*
X5157927Y2392476D01*
X5146497Y2396185D01*
X5137810Y2399792D01*
X5134610Y2401519D01*
X5129733Y2405176D01*
X5129479Y2407767D01*
X5091002Y2407767D01*
X5089753Y2402230D01*
X5090007Y2396642D01*
X5091785Y2391968D01*
X5094681Y2388057D01*
X5098338Y2384602D01*
X5105450Y2379218D01*
X5109108Y2376932D01*
X5118049Y2372360D01*
X5128717Y2367838D01*
X5140706Y2363571D01*
X5153660Y2359609D01*
X5167122Y2356154D01*
X5180685Y2353310D01*
X5193944Y2351227D01*
X5206492Y2350008D01*
X5217922Y2349754D01*
X5221732Y2339390D01*
X5226710Y2328265D01*
X5232654Y2316683D01*
X5239308Y2304999D01*
X5246522Y2293467D01*
X5254142Y2282393D01*
X5261914Y2272182D01*
X5269687Y2262987D01*
X5277256Y2255215D01*
X5280914Y2251964D01*
X5288026Y2246579D01*
X5292039Y2244394D01*
X5296509Y2242972D01*
X5301538Y2242820D01*
X5307076Y2244293D01*
X5313172Y2247747D01*
X5319826Y2253640D01*
X5327142Y2262378D01*
X5332882Y2270607D01*
X5338521Y2279243D01*
X5344058Y2288235D01*
X5349443Y2297633D01*
X5354726Y2307386D01*
X5359857Y2317496D01*
X5364835Y2327910D01*
X5369610Y2338578D01*
X5374233Y2349601D01*
X5382818Y2372309D01*
X5386832Y2383993D01*
X5392369Y2401925D01*
X5398871Y2426411D01*
X5401716Y2438857D01*
X5404307Y2451455D01*
X5406593Y2464104D01*
X5408574Y2476804D01*
X5410250Y2489606D01*
X5412079Y2508859D01*
X5412892Y2521661D01*
X5413349Y2534513D01*
X5413451Y2547315D01*
X5413146Y2560066D01*
X5412486Y2572715D01*
X5411368Y2585313D01*
X5409844Y2597759D01*
X5407914Y2610104D01*
G37*
D10*
G01*
X4624397Y4102100D03*
D11*
G01*
X4824402Y4102100D03*
D12*
G01*
X5036820Y4537455D03*
G01*
X5036820Y4987544D03*
G01*
X4386579Y4537455D03*
G01*
X4386579Y4987544D03*
D10*
G01*
X1944697Y4292600D03*
D11*
G01*
X2144702Y4292600D03*
D13*
G01*
X2144702Y5397500D03*
D14*
G01*
X1944697Y5397500D03*
D12*
G01*
X2962300Y3276600D03*
G01*
X2092299Y3276600D03*
G01*
X4232300Y3276600D03*
G01*
X3362299Y3276600D03*
D15*
G01*
X1193800Y2590800D03*
D16*
G01*
X1193800Y2336800D03*
D17*
G01*
X3937000Y1625600D03*
D16*
G01*
X3683000Y1625600D03*
G01*
X1193800Y4978400D03*
G01*
X1193800Y4724400D03*
G01*
X1193800Y4470400D03*
G01*
X1193800Y4216400D03*
G01*
X1193800Y3962400D03*
D17*
G01*
X1193800Y3708400D03*
D16*
G01*
X6057900Y3200400D03*
G01*
X6057900Y3454400D03*
D18*
G01*
X6057900Y3708400D03*
D19*
G01*
X2616200Y3937000D03*
G01*
X2743200Y3937000D03*
D20*
G01*
X2870201Y3937000D03*
D19*
G01*
X3403600Y3937000D03*
G01*
X3530600Y3937000D03*
D20*
G01*
X3657601Y3937000D03*
D21*
G01*
X2465395Y4483100D03*
D22*
G01*
X2665404Y4483100D03*
D23*
G01*
X2946400Y4840295D03*
D24*
G01*
X2946400Y5040304D03*
D23*
G01*
X3225800Y4840295D03*
D24*
G01*
X3225800Y5040304D03*
D21*
G01*
X3519495Y4495800D03*
D22*
G01*
X3719504Y4495800D03*
D25*
G01*
X1612900Y4976804D03*
D26*
G01*
X1612900Y4776795D03*
D27*
G01*
X1930399Y6007100D03*
D28*
G01*
X2184400Y7531100D03*
G01*
X2692400Y7531100D03*
G01*
X3200400Y7531100D03*
G01*
X3708400Y7531100D03*
G01*
X4216400Y7531100D03*
G01*
X4724400Y7531100D03*
G01*
X5232400Y7531100D03*
G01*
X5486400Y6007100D03*
G01*
X4978400Y6007100D03*
G01*
X4470400Y6007100D03*
G01*
X3962400Y6007100D03*
G01*
X3454400Y6007100D03*
G01*
X2946400Y6007100D03*
G01*
X2438400Y6007100D03*
G01*
X2184400Y6007100D03*
G01*
X2692400Y6007100D03*
G01*
X3200400Y6007100D03*
G01*
X3708400Y6007100D03*
G01*
X4216400Y6007100D03*
G01*
X4724400Y6007100D03*
G01*
X5232400Y6007100D03*
G01*
X5486400Y7531100D03*
G01*
X4978400Y7531100D03*
G01*
X4470400Y7531100D03*
G01*
X3962400Y7531100D03*
G01*
X3454400Y7531100D03*
G01*
X2946400Y7531100D03*
G01*
X2438400Y7531100D03*
D27*
G01*
X1930399Y7531100D03*
D29*
G01*
X2197658Y4814493D03*
G01*
X2197658Y4864506D03*
G01*
X2197658Y4914493D03*
G01*
X2197658Y4964506D03*
G01*
X1917141Y4814493D03*
G01*
X1917141Y4864506D03*
G01*
X1917141Y4914493D03*
G01*
X1917141Y4964506D03*
D28*
G01*
X2260600Y2856484D03*
G01*
X2260600Y2536444D03*
G01*
X2260600Y2316479D03*
G01*
X2260600Y2096515D03*
G01*
X2768600Y2096515D03*
G01*
X2768600Y2316479D03*
G01*
X2768600Y2536444D03*
G01*
X2768600Y2856458D03*
G01*
X3543300Y2856484D03*
G01*
X3543300Y2536444D03*
G01*
X3543300Y2316479D03*
G01*
X3543300Y2096515D03*
G01*
X4051300Y2096515D03*
G01*
X4051300Y2316479D03*
G01*
X4051300Y2536444D03*
G01*
X4051300Y2856458D03*
M02*
